<svg width="1311" height="817" viewBox="0 0 1311 817" fill="none" xmlns="http://www.w3.org/2000/svg">
<path d="M835.105 32.3758C838.657 22.5699 842.776 14.872 852.768 10.1584C860.259 6.67774 868.845 6.39046 876.551 9.36302C886.57 13.1545 892.988 20.5949 897.745 29.9058C922.477 2.95338 961.714 13.7838 962.718 50.9069C962.732 51.4351 962.739 51.964 962.739 52.4929C971.47 48.3213 980.415 46.3172 989.866 49.5667C997.254 52.0997 1003.31 57.5055 1006.66 64.5624C1011.83 75.4385 1010.19 88.1692 1004.63 98.5489C1036.39 103.317 1037.52 141.123 1010.21 155.26C1014.28 173.884 1002.25 184.471 984.604 185.473C983.503 191.792 981.682 196.682 976.102 200.668C971.823 203.666 966.471 204.709 961.382 203.538C959.519 203.102 957.601 202.121 955.87 201.3C949.521 201.614 947.437 202.83 939.71 202.71C941.649 205.484 953.509 224.751 954.901 225.331L956.32 224.942C1016.98 202.207 1075.15 192.88 1134.55 222.884C1144.66 227.99 1183.28 247.14 1190.82 253.983C1194.35 256.788 1198.24 258.776 1202.18 260.953C1230.82 279.726 1294.39 305.195 1265.61 351.657C1254.93 368.903 1239.89 371.065 1223.38 378.523C1277.95 396.102 1273.21 469.871 1257.21 513.381C1245.56 545.064 1233.03 576.299 1221.06 607.859C1227.41 609.126 1230.97 611.874 1236.46 615.37C1244.59 620.403 1254.29 627.616 1261.93 633.597L1267.21 638.443C1273.26 643.649 1278.96 649.242 1284.29 655.182C1288.87 660.256 1296.31 668.819 1298.86 675.077L1301.83 680.352C1304.73 685.634 1311.93 695.271 1310.12 701.522C1307.09 712.023 1233.44 749.544 1220.89 755.504C1193.68 768.442 1102.04 809.5 1075.59 799.573C1072.47 798.397 1070.94 795.766 1069.76 792.789C1069.22 791.432 1068.85 789.972 1068.45 788.56C1004.51 804.848 940.402 812.401 874.384 812.214C840.242 812.159 805.478 811.764 772.257 802.952C767.902 801.796 760.757 799.864 760.12 794.582C759.469 789.189 760.895 776.577 764.129 772.368L765.97 767.432C774.078 745.57 791.194 730.624 811.536 720.455C817.331 716.357 822.967 713.553 829.233 710.251C832.737 703.252 836.372 702.768 843.58 700.165C844.549 699.888 845.311 699.756 846.321 699.756L847.208 698.856L846.488 694.793C839.716 690.584 830.681 686.59 823.874 681.765C775.553 647.041 714.062 607.776 691.844 550.408C674.797 506.387 702.008 455.151 746.148 440.233C743.309 434.071 741.633 431.572 739.743 425.112C736.066 412.556 747.809 398.285 746.549 392.525C746.639 388.671 745.157 384.651 745.317 381.905C745.732 374.504 748.543 364.147 750.489 356.83C758.057 328.689 763.963 300.11 784.54 278.182C790.965 271.337 807.984 264.641 811.716 260.142C800.638 254.316 788.874 249.92 780.372 240.385C767.854 226.344 761.678 205.793 777.159 191.517L780.974 188.462L781.154 187.615C781.3 186.741 781.466 185.869 781.646 185.002C783.876 174.473 790.972 171.752 800.534 174.502C798.499 160.584 799.482 149.311 804.55 136.24C805.54 126.613 806.953 123.935 812.63 116.014C814.493 109.987 815.448 107.194 818.148 101.368C813.523 94.2389 815.393 90.3532 822.324 86.1547C820.558 84.0032 816.604 81.3608 817.027 79.1248C818.55 70.9824 812.616 71.1368 809.279 65.0844C807.873 62.5438 806.946 57.7513 806.897 54.4963C806.766 48.5255 809.051 42.7549 813.233 38.4898C819.208 32.407 826.921 30.7857 835.105 32.3758Z" fill="#0C0C0C"/>
<path d="M835.105 32.3758C838.657 22.5699 842.776 14.872 852.767 10.1584C860.259 6.67774 868.844 6.39046 876.551 9.36302C886.569 13.1545 892.988 20.5949 897.745 29.9058C922.476 2.95338 961.714 13.7838 962.718 50.9069C962.732 51.4351 962.738 51.964 962.738 52.4929C971.469 48.3213 980.415 46.3172 989.866 49.5667C997.254 52.0997 1003.31 57.5055 1006.66 64.5624C1011.83 75.4385 1010.19 88.1692 1004.63 98.5489C1036.39 103.317 1037.52 141.123 1010.21 155.26C1014.28 173.884 1002.25 184.471 984.604 185.472C983.503 191.792 981.682 196.682 976.102 200.668C971.823 203.666 966.47 204.709 961.381 203.538C959.519 203.102 957.601 202.121 955.87 201.3C949.521 201.614 947.437 202.83 939.71 202.71C941.648 205.484 953.509 224.751 954.901 225.331L956.32 224.942C958.667 227.968 958.231 236.007 957.629 239.766C952.235 273.333 912.118 287.844 894.179 254.118C894.068 260.453 894.165 263.029 891.79 268.971C887.262 280.272 886.216 293.628 884.153 305.641C881.896 318.24 879.431 330.8 876.752 343.317C875.886 347.458 872.258 361.547 872.895 364.314C876.537 373.129 893.618 413.56 893.812 420.288C893.431 421.157 892.953 422.354 892.517 423.159L889.616 426.275C882.477 430.921 874.1 442.59 865.438 447.031C863.956 447.793 861.021 450.2 860.148 451.71C853.217 449.449 845.096 447.449 837.971 445.539C804.827 436.018 780.891 429.473 746.147 440.233C743.309 434.071 741.633 431.572 739.743 425.112C736.066 412.556 747.809 398.285 746.549 392.525C746.639 388.671 745.157 384.651 745.316 381.905C745.732 374.504 748.543 364.147 750.489 356.83C758.056 328.689 763.962 300.11 784.54 278.182C790.965 271.337 807.984 264.641 811.716 260.142C800.638 254.316 788.874 249.92 780.372 240.385C767.853 226.344 761.677 205.793 777.159 191.517L780.974 188.462L781.154 187.615C781.3 186.741 781.466 185.869 781.646 185.002C783.875 174.473 790.972 171.752 800.534 174.502C798.498 160.584 799.482 149.311 804.55 136.24C805.54 126.613 806.952 123.935 812.63 116.014C814.492 109.987 815.448 107.194 818.148 101.368C813.523 94.2389 815.393 90.3532 822.323 86.1547C820.558 84.0031 816.604 81.3608 817.027 79.1248C818.55 70.9824 812.616 71.1368 809.279 65.0844C807.873 62.5438 806.945 57.7513 806.897 54.4963C806.765 48.5255 809.05 42.7548 813.232 38.4898C819.208 32.407 826.921 30.7857 835.105 32.3758Z" fill="#44B34D"/>
<path d="M835.105 32.3758C838.657 22.5699 842.777 14.872 852.768 10.1584C860.259 6.67774 868.845 6.39046 876.551 9.36302C886.57 13.1545 892.988 20.5949 897.745 29.9058C922.477 2.95338 961.714 13.7838 962.718 50.9069C962.732 51.4351 962.739 51.964 962.739 52.4929C971.47 48.3213 980.416 46.3172 989.867 49.5667C997.254 52.0997 1003.31 57.5055 1006.66 64.5624C1011.83 75.4385 1010.19 88.1692 1004.64 98.5489C1036.39 103.317 1037.52 141.123 1010.21 155.26C1014.28 173.884 1002.25 184.471 984.604 185.472C983.503 191.792 981.683 196.682 976.102 200.668C971.823 203.666 966.471 204.709 961.382 203.538C959.519 203.102 957.601 202.121 955.87 201.3C958.058 200.084 960.198 198.788 962.289 197.414C986.578 181.285 976.234 144.594 945.886 150.333C942.314 151.008 938.748 155.207 934.601 154.531C920.843 144.55 927.164 126.955 935.064 115.585C919.507 111.623 911.676 104.201 910.914 87.6029C892.351 94.1191 877.749 92.0673 869.835 72.4064C856.237 80.6928 846.55 81.7907 833.783 71.7633C831.345 75.8871 828.811 81.1047 826.575 85.4237C833.146 85.171 856.659 84.7778 843.358 99.4648C839.973 103.197 823.535 102.482 818.149 101.368C813.524 94.2389 815.393 90.3532 822.324 86.1547C820.558 84.0031 816.605 81.3608 817.027 79.1248C818.55 70.9824 812.617 71.1368 809.279 65.0844C807.874 62.5438 806.946 57.7513 806.897 54.4963C806.766 48.5255 809.051 42.7548 813.233 38.4898C819.208 32.407 826.921 30.7857 835.105 32.3758Z" fill="#0C0C0C"/>
<path d="M811.716 260.142L822.4 265.033C815.808 275.778 809.916 287.165 803.588 298.138C792.641 316.947 781.556 335.679 770.339 354.333C764.759 363.701 759.303 373.18 753.681 382.517C751.514 386.113 748.751 389.209 746.549 392.525C746.639 388.671 745.157 384.651 745.317 381.905C745.732 374.504 748.543 364.147 750.489 356.83C758.057 328.689 763.963 300.11 784.54 278.182C790.965 271.337 807.984 264.641 811.716 260.142Z" fill="#FBF0D6"/>
<path d="M872.895 364.314C876.537 373.129 893.618 413.56 893.812 420.288C893.431 421.157 892.953 422.354 892.517 423.159L889.616 426.275C882.478 430.921 874.1 442.59 865.438 447.031C863.956 447.793 861.021 450.2 860.148 451.71C853.217 449.449 845.096 447.449 837.971 445.539C839.211 442.627 849.624 437.218 852.068 433.68C854.124 430.701 854.325 426.452 857.081 424.719C857.095 421.899 871.434 368.018 872.895 364.314Z" fill="#FBF0D6"/>
<path d="M872.895 364.314C876.537 373.129 893.618 413.56 893.812 420.288C893.431 421.157 892.953 422.354 892.517 423.159L889.616 426.275C884.153 411.449 878.413 396.727 872.39 382.118C869.53 393.359 866.006 418.41 857.081 424.719C857.095 421.899 871.434 368.018 872.895 364.314Z" fill="#0C0C0C"/>
<path d="M812.63 116.014C816.771 113.601 818.253 112.295 822.988 113.484C832.266 114.627 834.136 118.267 837.494 126.009C840.187 124.885 839.377 124.772 841.856 125.21C842.728 127.841 840.063 129.654 837.84 130.97C830.605 135.244 815.379 153.457 816.425 161.835C819.423 167.96 828.077 166.057 831.948 169.741C831.955 171.692 832.225 170.771 830.743 172.463C824.775 173.775 813.33 169.029 811.128 162.911C811.135 157.313 814.701 154.714 814.694 151.242C805.596 146.977 805.672 146.262 804.55 136.24C805.54 126.613 806.953 123.935 812.63 116.014Z" fill="#0C0C0C"/>
<path d="M822.988 113.484C832.266 114.627 834.136 118.267 837.494 126.01C834.606 128.521 829.116 132.38 825.696 135.165C825.827 134.562 825.945 133.958 826.055 133.354C827.572 125.353 827.703 120.349 822.988 113.484Z" fill="#F7F6DD"/>
<path d="M781.154 187.615C781.3 186.741 781.466 185.869 781.646 185.002C783.875 174.473 790.972 171.752 800.534 174.502C806.53 181.821 806.849 189.007 810.38 197.041C811.342 199.236 817.934 207.878 819.782 210.665C840.166 215.525 858.667 214.471 872.48 233.96L873.352 235.47C875.076 239.039 878.42 246.464 874.252 248.915C871.441 248.332 870.52 245.034 869.655 242.284C860.751 214.102 826.173 225.185 809.694 209.303C802.133 202.288 804.529 186.659 797.432 179.611C792.052 174.268 783.799 184.253 781.154 187.615Z" fill="#0C0C0C"/>
<path d="M780.974 188.462C781.521 194.594 781.687 200.786 783.266 206.777C784.928 213.087 790.564 218.614 789.934 225.342L788.563 225.953C778.579 219.671 776.619 202.256 777.159 191.517L780.974 188.462Z" fill="#0C0C0C"/>
<path d="M872.48 233.96C880.408 233.593 882.471 236.149 888.661 241.167C883.274 238.309 879.487 235.606 873.352 235.47L872.48 233.96Z" fill="#040D03"/>
<path d="M866.103 121.985C885.116 121.185 895.141 140.825 882.914 155.273C879.618 159.171 867.578 162.009 863.188 159.986C843.019 164.764 844.985 123.591 866.103 121.985Z" fill="#0C0C0C"/>
<path d="M866.103 121.985C885.116 121.185 895.141 140.825 882.914 155.273C879.618 159.171 867.578 162.009 863.188 159.986C874.072 151.6 877.396 131.833 866.103 121.985Z" fill="#F7F6DD"/>
<path d="M867.931 92.0105C877.299 91.3681 910.035 105.338 891.423 118.94C886.071 118.259 883.925 115.795 879.487 113.862C868.748 109.186 852.699 104.968 867.931 92.0105Z" fill="#0C0C0C"/>
<path d="M872.244 178.933L874.702 179.514C880.622 185.715 868.789 198.938 862.828 201.816C857.247 204.509 855.426 204.612 849.389 204.57C847.616 203.728 846.218 203.076 845.968 201.118C852.428 193.283 859.248 208.782 872.244 178.933Z" fill="#030A02"/>
<path d="M949.701 167.002C953.793 166.618 958.612 165.793 960.773 170.261C957.262 174.603 953.17 169.16 944.751 175.408L944.065 175.923C941.649 178.626 941.088 179.941 937.896 180.693L936.92 179.734C937.176 172.911 944.128 169.11 949.701 167.002Z" fill="#0C0C0C"/>
<path d="M927.697 196.49C931.381 199.138 933.125 199.889 937.3 201.788C931.505 205.144 926.908 207.803 921.424 211.675C918.121 214.12 917.007 214.815 913.323 216.63C919.063 209.882 923.148 204.007 927.697 196.49Z" fill="#040D03"/>
<path d="M956.321 224.942C1016.98 202.207 1075.15 192.88 1134.55 222.884C1144.66 227.99 1183.28 247.14 1190.82 253.983C1166.39 265.084 1129.08 299.007 1111.75 319.803C1108.67 322.848 1078.66 338.139 1072.23 341.797L1064.89 346.651C1054.63 353.904 1043.46 361.526 1034.23 369.983C1007.1 394.804 981.724 431.596 976.109 468.715C949.577 469.232 930.709 468.264 904.676 462.207C905.05 461.992 905.52 461.445 905.853 461.106C905.659 456.311 895.038 425.37 892.517 423.159C892.954 422.354 893.432 421.157 893.812 420.288C893.618 413.56 876.537 373.129 872.895 364.314C872.258 361.547 875.887 347.459 876.752 343.317C879.432 330.8 881.896 318.24 884.154 305.641C886.217 293.628 887.262 280.272 891.791 268.972C894.165 263.029 894.068 260.453 894.179 254.118C912.119 287.844 952.236 273.333 957.629 239.766C958.232 236.007 958.668 227.968 956.321 224.942Z" fill="#FBF0D6"/>
<path d="M1064.89 346.651C1054.98 338.164 1023.99 300.862 1027.21 288.563L1028.37 288.007C1032.3 289.809 1036.92 299.932 1039.84 304.023C1049.84 318.051 1059.95 329.867 1072.23 341.797L1064.89 346.651Z" fill="#121212"/>
<path d="M1221.06 607.859C1227.41 609.126 1230.97 611.874 1236.46 615.37C1244.59 620.403 1254.29 627.616 1261.93 633.597L1267.21 638.443C1273.26 643.649 1278.96 649.242 1284.29 655.182C1288.87 660.256 1296.31 668.819 1298.86 675.077L1301.83 680.352C1304.73 685.634 1311.93 695.271 1310.12 701.522C1307.09 712.023 1233.44 749.544 1220.89 755.504C1193.68 768.442 1102.04 809.5 1075.59 799.573C1072.47 798.396 1070.94 795.766 1069.76 792.789C1069.22 791.432 1068.85 789.972 1068.45 788.559C1004.51 804.848 940.402 812.401 874.384 812.214C840.242 812.159 805.478 811.764 772.257 802.952C767.902 801.795 760.757 799.864 760.12 794.582C759.469 789.189 760.895 776.576 764.129 772.367L765.971 767.432C774.078 745.57 791.194 730.624 811.536 720.455C830.362 732.784 838.948 740.69 846.363 762.939C910.699 765.41 950.657 763.34 1014.07 752.783C1031.1 751.309 1049.36 743.376 1064.19 735.525C1069.74 732.59 1072.74 731.635 1078.67 733.795L1079.04 736.571C1079.04 742.649 1079.11 748.914 1078.98 754.978L1080.02 755.075C1082.69 753.593 1090.94 752.5 1094.38 751.897C1112.38 750.762 1161.22 730.444 1178.46 721.791C1177.67 721.154 1176.53 720.538 1176.6 719.797C1177.29 712.072 1188.25 689.982 1192.07 683.945C1192.04 681.204 1201.43 657.771 1203.2 654.199L1204.63 650.62L1209.4 638.256C1213.19 628.087 1217.09 617.952 1221.06 607.859Z" fill="#0C0C0C"/>
<path d="M1301.83 680.352C1304.73 685.634 1311.93 695.271 1310.12 701.522C1307.09 712.023 1233.44 749.544 1220.89 755.504C1193.68 768.442 1102.04 809.5 1075.59 799.573C1072.47 798.396 1070.94 795.766 1069.76 792.789C1069.22 791.432 1068.85 789.972 1068.45 788.559C1004.51 804.848 940.402 812.401 874.384 812.214C840.242 812.159 805.478 811.764 772.257 802.952C767.902 801.795 760.757 799.864 760.12 794.582C759.469 789.189 760.895 776.576 764.129 772.367C784.727 777.414 806.011 779.338 827.136 780.979C886.424 785.894 946.073 784.143 1004.97 775.76C1031.8 771.841 1053 766.352 1078.79 761.637C1079.07 771.841 1079.01 775.988 1076.73 785.943C1079.77 781.041 1080.79 779.048 1082.94 773.662C1137.02 763.811 1194.1 735.782 1243.1 710.743C1262.77 700.795 1282.35 690.667 1301.83 680.352Z" fill="#FBF0D6"/>
<path d="M765.971 767.432C774.079 745.57 791.194 730.624 811.536 720.455C830.362 732.784 838.948 740.69 846.363 762.939C910.699 765.41 950.657 763.34 1014.07 752.783C1031.1 751.309 1049.36 743.376 1064.19 735.525C1069.74 732.59 1072.74 731.635 1078.67 733.795L1079.04 736.571C1079.04 742.649 1079.11 748.914 1078.98 754.978C992.034 773.378 913.677 782.675 824.525 774.306C807.548 772.714 782.906 770.983 766.968 767.065L765.971 767.432Z" fill="#FBF0D6"/>
<path d="M765.971 767.432C774.079 745.57 791.194 730.624 811.536 720.455C830.362 732.784 838.948 740.69 846.363 762.939C819.45 760.613 800.888 758.702 774.279 754.113C771.177 758.238 769.073 762.35 766.968 767.065L765.971 767.432Z" fill="#44B34D"/>
<path d="M1221.06 607.859C1227.41 609.126 1230.97 611.874 1236.46 615.37C1244.59 620.403 1254.29 627.616 1261.93 633.597L1267.21 638.443C1273.26 643.649 1278.96 649.242 1284.29 655.182C1272.52 662.478 1269.22 668.722 1259.43 677.549C1248.15 687.732 1232.89 695.167 1219.33 701.736L1216.97 703.052C1212.18 705.703 1201.51 712.092 1196.49 713.062C1195.77 712.065 1196 712.639 1196.11 711.206C1193.03 712.736 1194.97 712.466 1192.4 715.194C1187.6 717.617 1183.44 719.721 1178.46 721.791C1177.67 721.154 1176.53 720.538 1176.6 719.797C1177.29 712.072 1188.25 689.982 1192.07 683.945C1192.04 681.204 1201.43 657.771 1203.2 654.199L1204.63 650.62L1209.4 638.256C1213.19 628.087 1217.09 617.952 1221.06 607.859Z" fill="#040704"/>
<path d="M1221.06 607.859C1227.41 609.126 1230.97 611.874 1236.46 615.37C1244.59 620.403 1254.29 627.616 1261.93 633.597C1254.38 638.055 1244.91 642.285 1238.15 647.387C1222.02 659.598 1209.1 672.717 1192.07 683.945C1192.04 681.204 1201.43 657.771 1203.2 654.199L1204.63 650.62L1209.4 638.256C1213.19 628.087 1217.09 617.952 1221.06 607.859Z" fill="#44B34D"/>
<path d="M1221.06 607.859C1227.41 609.126 1230.97 611.874 1236.46 615.37C1229.25 619.281 1216.93 625.608 1213.67 633.389C1212.76 635.044 1211.38 637.349 1210.74 639.066L1209.4 638.256C1213.19 628.087 1217.09 617.952 1221.06 607.859Z" fill="#F7F6DD"/>
<path d="M1213.67 633.389C1213.44 638.388 1210.93 640.984 1212.99 643.04C1214.87 644.902 1215.77 645.878 1216.81 648.398L1216.69 650.197C1213.53 651.52 1207.97 651.423 1205.91 653.915C1205.08 654.123 1204.03 654.49 1203.2 654.199L1204.63 650.62L1209.4 638.256L1210.74 639.066C1211.38 637.349 1212.76 635.044 1213.67 633.389Z" fill="#53BC5B"/>
<path d="M1204.63 650.62L1209.4 638.256L1210.74 639.066C1209.92 641.558 1207.84 649.533 1206.42 650.807C1205.31 650.841 1205.3 651.049 1204.63 650.62Z" fill="#F7F6DD"/>
<path d="M1267.21 638.443C1273.26 643.649 1278.96 649.242 1284.29 655.182C1272.52 662.478 1269.22 668.722 1259.43 677.549C1248.15 687.732 1232.89 695.167 1219.33 701.736L1216.97 703.052C1212.49 702.581 1210.08 702.816 1205.64 703.322C1218.45 689.006 1229.39 684.831 1246.78 678.58C1251.2 660.395 1253.02 651.644 1267.21 638.443Z" fill="#53BC5B"/>
<path d="M1284.29 655.182C1288.87 660.256 1296.31 668.819 1298.86 675.077C1281.93 684.34 1257.74 696.454 1240.35 704.983C1198.92 725.301 1128.74 760.53 1083.86 767.113C1083.11 762.967 1082.55 758.529 1080.02 755.075C1082.69 753.593 1090.94 752.5 1094.38 751.897C1112.38 750.762 1161.22 730.444 1178.46 721.791C1183.44 719.721 1187.6 717.617 1192.4 715.194C1194.97 712.466 1193.03 712.736 1196.11 711.206C1196 712.639 1195.77 712.065 1196.49 713.062C1201.51 712.092 1212.18 705.703 1216.97 703.052L1219.33 701.736C1232.89 695.167 1248.15 687.732 1259.43 677.549C1269.22 668.722 1272.52 662.478 1284.29 655.182Z" fill="#FBF0D6"/>
<path d="M1216.97 703.052L1219.33 701.736C1219.59 706.146 1219.92 708.77 1216.66 712.362C1211.77 717.783 1198.79 723.895 1191.77 724.345L1190.54 723.736C1189.69 720.282 1192.08 718.406 1192.39 715.194C1194.97 712.466 1193.03 712.736 1196.11 711.206C1196 712.639 1195.77 712.065 1196.49 713.062C1201.51 712.092 1212.18 705.703 1216.97 703.052Z" fill="#A5DF9F"/>
<path d="M1190.82 253.983C1194.35 256.788 1198.24 258.776 1202.18 260.953C1230.82 279.726 1294.39 305.195 1265.61 351.657C1254.93 368.903 1239.89 371.065 1223.38 378.523C1216.29 379.14 1201.99 382.825 1194.72 384.664C1161.35 393.11 1119.66 404.944 1089.26 421.038C1083.61 445.307 1074.09 458.527 1063.51 480.401C1056.84 494.175 1062.79 508.146 1048.28 520.087C1039.87 521.666 1032.97 520.814 1031.69 510.312C1030.46 500.327 1032.26 488.997 1034.15 479.237C1035.06 474.973 1037.09 469.075 1037.01 465.128L1036.13 464.477C1033.29 465.854 1031.69 468.442 1030.72 471.371C1026.04 485.634 1025.03 500.845 1027.77 515.601C1020.4 530.201 1007.03 529.364 1001.27 513.921C1003.6 501.448 1000.49 488.131 1005.67 475.355C1006.91 472.288 1008.91 463.982 1007.59 460.963L1006.47 460.728C997.676 468.391 995.433 500.028 998.022 511.431C995.738 514.978 992.996 519.797 988.502 520.406C977.14 521.936 973.789 511.962 972.598 503.027C970.943 490.58 973.526 480.444 976.109 468.715C981.724 431.596 1007.1 394.804 1034.23 369.983C1043.46 361.526 1054.63 353.904 1064.89 346.651L1072.23 341.797C1078.66 338.139 1108.67 322.848 1111.75 319.803C1129.08 299.007 1166.39 265.084 1190.82 253.983Z" fill="#44B34D"/>
<path d="M1190.82 253.983C1194.35 256.788 1198.24 258.776 1202.18 260.953C1199.76 263.647 1183.41 270.119 1178.56 273.277C1169.68 279.154 1161.09 285.454 1152.8 292.156C1141.6 301.269 1133.99 311.912 1120.02 316.964C1117.42 317.907 1114.56 319.744 1111.75 319.803C1129.08 299.007 1166.39 265.084 1190.82 253.983Z" fill="#0C0C0C"/>
<path d="M891.797 729.364C920.628 728.298 925.987 708.783 953.689 705.142C972.737 702.643 990.711 712.106 1008.78 716.232C1018.75 718.517 1028.8 719.057 1039 719.818C1051.8 709.753 1062.51 708.188 1077.93 710.126C1078.41 716.191 1079.09 728.16 1078.67 733.795C1072.74 731.635 1069.74 732.59 1064.19 735.525C1049.36 743.376 1031.1 751.309 1014.07 752.783C1015.51 746.138 1020.12 740.586 1024.18 735.332C1016.2 735.048 1009.38 734.66 1001.51 732.84C982.617 728.478 966.512 720.586 946.883 727.246C935.757 731.026 927.538 738.018 916.778 742.019C902.543 747.308 888.924 746.048 875.27 740.025C882.859 736.868 885.995 735.062 891.797 729.364Z" fill="#44B34D"/>
<path d="M950.228 647.463C954.839 647.096 965.709 648.882 970.888 649.36C1012.41 653.202 1033.51 669.92 1064.06 695.942C1067.3 698.697 1070.45 701.563 1073.5 704.54C1070.4 705.101 1062.77 706.547 1059.95 706.499C1032.55 706.049 1008.01 691.069 983.469 680.789C973.741 676.718 967.897 675.728 958.135 673.423C951.924 671.962 954.07 669.802 943.892 668.868C937.079 660.498 934.483 658.858 925.184 653.507C930.245 650.952 932.26 650.288 937.82 649.187C942.092 648.335 947.202 649.166 950.228 647.463Z" fill="#44B34D"/>
<path d="M972.148 547.224C944.834 533.379 918.89 524.905 889.651 516.584C877.825 513.219 806.869 496.887 802.535 488.548C808.884 488.333 822.123 495.389 830.861 497.637C856.943 504.346 882.997 510.709 908.857 518.232C932.329 525.058 952.18 534.168 974.378 543.873C978.317 538.003 986.654 524.843 991.556 520.468C987.99 530.81 980.609 541.36 974.675 550.616C962.323 570.248 949.147 589.341 935.175 607.852C925.53 620.527 912.105 636.172 903.533 648.951C920.656 648.571 932.232 647.186 950.227 647.463C947.202 649.166 942.092 648.335 937.82 649.187C932.26 650.287 930.245 650.952 925.184 653.506C934.483 658.858 937.079 660.498 943.892 668.868C946.378 679.445 937.01 682.865 930.564 677.915C929.428 677.022 928.313 676.102 927.226 675.146C920.801 676.849 915.989 678.089 910.131 681.488C905.112 677.036 899.815 674.253 893.985 671.124C896.305 669.02 898.79 667.649 901.449 666.036C901.31 663.143 901.463 662.478 900.237 659.951C902.321 657.736 903.706 657.016 902.861 654.039C901.137 652.558 900.632 652.337 898.596 651.257L898.209 649.969C898.991 646.999 901.892 643.711 903.81 641.288C927.033 611.888 952.928 579.185 972.148 547.224Z" fill="#FBF0D6"/>
<path d="M901.449 666.036C909.405 662.956 920.85 670.37 927.227 675.147C920.801 676.85 915.989 678.089 910.132 681.488C905.112 677.036 899.815 674.254 893.985 671.125C896.305 669.02 898.79 667.649 901.449 666.036Z" fill="#44B34D"/>
<path d="M846.488 694.793C853.529 695.464 856.7 686.16 859.338 685.51C868.457 683.267 871.642 681.294 877.949 673.63C881.065 669.844 882.159 668.909 887.304 668.016C890.011 669.525 891.271 670.979 893.985 671.124C899.815 674.253 905.112 677.036 910.131 681.488C916.889 687.697 921.604 698.448 908.352 698.545C905.707 699.604 896.935 705.599 894.567 707.537C891.686 719.915 882.298 716.225 874.224 712.099C867.501 708.056 857.67 704.54 850.102 700.573L849.133 700.248C847.478 701.092 847.374 701.203 845.484 701.639L843.58 700.165C844.549 699.888 845.311 699.756 846.321 699.756L847.208 698.856L846.488 694.793Z" fill="#FBF0D6"/>
<path d="M875.699 685.524C877.908 683.426 878.552 682.464 880.304 680.034C887.068 683.052 891.915 684.97 897.627 689.836C895.231 690.688 889.879 692.377 888.121 693.72C884.091 690.584 880.027 688.189 875.699 685.524Z" fill="#53BC5B"/>
<path d="M902.259 693.727C904.316 695.187 906.684 696.703 908.352 698.545C905.707 699.604 896.935 705.599 894.567 707.537C893.854 704.844 893.044 702.38 892.185 699.736C895.702 698.074 898.977 695.838 902.259 693.727Z" fill="#44B34D"/>
<path d="M897.627 689.836L902.259 693.727C898.977 695.838 895.702 698.074 892.185 699.736L888.121 693.72C889.879 692.377 895.231 690.688 897.627 689.836Z" fill="#0C0C0C"/>
<path d="M861.686 689.352C868.789 690.079 880.768 698.22 883.343 705.281C876.821 701.286 869.129 697.846 863.146 692.965C861.436 691.567 861.831 691.491 861.686 689.352Z" fill="#0C0C0C"/>
<path d="M838.096 705.53C846.294 706.416 859.532 715.568 865.494 721.209L866.179 721.853C866.318 721.985 866.449 722.116 866.588 722.248C866.221 731.268 860.225 731.69 853.709 727.35C846.758 721.729 836.227 719.098 832.557 713.622C833.014 708.569 833.838 708.112 838.096 705.53Z" fill="#FBF0D6"/>
<path d="M850.102 700.573C857.67 704.54 867.502 708.057 874.225 712.099C871.088 712.695 869.96 711.912 867.211 710.666L866.207 711.061C865.757 717.644 869.717 716.675 866.588 722.248C866.449 722.116 866.318 721.985 866.179 721.853L865.494 721.209C859.532 715.568 846.294 706.416 838.096 705.53C841.662 705.585 848.295 703.986 850.102 700.573Z" fill="#44B34D"/>
<path d="M832.557 713.622C836.226 719.098 846.758 721.729 853.709 727.35C851.161 728.81 849.153 729.406 846.411 730.375C839.508 727.772 833.651 725.453 826.935 722.428C828.783 719.617 831.394 716.654 832.557 713.622Z" fill="#44B34D"/>
<path d="M1079.04 736.571C1086.7 741.036 1089.39 744.449 1094.38 751.897C1090.94 752.5 1082.69 753.593 1080.02 755.075L1078.98 754.978C1079.11 748.914 1079.04 742.649 1079.04 736.571Z" fill="#44B34D"/>
<path d="M900.237 659.951C901.463 662.478 901.311 663.143 901.449 666.036C898.79 667.649 896.305 669.02 893.985 671.124C891.271 670.979 890.011 669.525 887.304 668.016C891.541 666.286 896.374 662.63 900.237 659.951Z" fill="#FFFFFE"/>
<path d="M1167.26 406.707C1168.54 407.32 1167.97 406.922 1168.82 408.129C1164.96 438.486 1139.88 494.592 1126.87 523.978C1103.78 576.07 1079.44 627.602 1053.88 678.532L1051.87 676.704C1051.43 674.157 1071.19 634.719 1074.16 628.474C1093.33 588.351 1111.89 547.951 1129.85 507.274C1139.97 484.211 1150.15 461.153 1158.64 437.418C1162.44 426.798 1164.16 417.197 1167.26 406.707Z" fill="#FBF0D6"/>
<path d="M1078.32 698.877C1092.26 704.235 1106.83 712.404 1121.61 717.347C1127.28 719.237 1150.3 724.775 1152.68 727.128C1135.89 726.761 1094.28 712.563 1079.47 702.671C1078.11 701.764 1078.44 700.629 1078.32 698.877Z" fill="#FBF0D6"/>
<path d="M211.826 199.134C239.687 193.436 279.792 194.901 307.675 199.777C308.377 201.658 307.01 204.929 306.718 207.065C305.244 217.845 309.933 227.575 318.519 234.086C325.89 239.586 335.158 241.898 344.248 240.504C354.392 238.936 363.769 232.999 369.942 224.793C371.547 222.659 375.58 215.63 375.42 213.047C369.027 209.364 363.899 203.113 359.193 197.518C366.947 200.546 373.267 202.998 381.222 205.337L377.938 210.714C403.918 216.577 444.003 223.881 460.798 246.508C461.136 246.962 461.237 247.259 461.442 247.746C448.126 277.821 432.065 307.064 422.635 338.582C421.358 342.853 419.535 350.853 416.556 354.025L414.416 354.794C406.598 370.554 402.038 387.59 395.029 402.876C416.312 409.811 433.938 414.885 455.977 418.994C482.295 425.566 519.195 425.426 546.567 425.768C551.825 425.834 565.725 426.669 570.108 426.417C597.67 427.628 630.861 434.975 650.003 456.117C664.197 471.911 671.578 492.672 670.532 513.88C667.126 577.462 593.84 623.857 544.5 652.427C540.193 654.919 525.857 661.544 523.514 664.057L523.704 664.541C525.194 668.729 527.059 668.072 528.988 670.861C546.12 686.354 577.633 709.199 583.406 731.863C584.908 737.934 585.999 744.137 586.25 750.395C586.472 753.033 586.645 755.67 586.769 758.308C586.789 766.061 584.267 779.823 574.65 781.069C550.413 784.198 525.664 778.722 502.561 771.523C448.509 754.687 399.417 725.204 351.162 696.24C338.507 688.673 325.638 679.508 312.966 672.447L312.335 672.101C312.889 679.792 313.369 686.236 302.939 683.038C303.458 690.785 309.737 713.518 311.538 722.94C312.134 727.855 312.795 732.756 313.519 737.651L314.716 744.352C315.679 751.8 319.586 768.518 315.727 773.676C300.074 782.045 29.3325 819.379 3.86987 816.423C-2.11169 812.491 0.615809 799.552 0.648974 793.384C0.651259 792.969 1.07763 785.327 1.11869 785.202L2.28224 779.062C3.25898 774.576 4.2961 770.097 5.39332 765.639C5.53304 764.822 5.68655 763.998 5.85376 763.188C9.97517 743.237 35.0724 728.174 51.2326 717.568C57.8926 712.695 65.5753 707.316 71.849 702.103C67.8332 692.661 79.1564 685.814 87.1146 688.68C89.0422 687.545 90.5502 685.835 92.1573 684.243C90.2691 683.336 85.7347 682.796 83.3972 682.478C64.9037 679.916 46.8138 676.393 28.5162 672.71C26.7333 672.281 26.8642 672.294 25.5431 671C24.3778 667.518 29.5479 646.923 30.6363 641.773C44.6418 575.447 85.4792 391.662 142.868 354.741C118.171 351.438 90.7704 357.664 68.232 340.667C43.7812 322.226 44.6113 298.04 62.7518 275.161C87.2448 244.269 123.923 224.177 160.009 209.866C175.321 203.874 195.982 201.312 211.826 199.134Z" fill="#30112D"/>
<path d="M142.868 354.741C161.472 346.922 173.24 346.234 192.821 350.198C193.606 350.833 198.669 353.529 199.751 354.043C234.868 370.728 249.141 403.575 260.863 438.065C275.221 480.316 285.293 522.898 293.238 566.753C296.617 584.945 298.842 603.761 302.52 621.926C303.649 627.505 305.56 632.413 307.101 637.709C307.36 637.176 307.657 636.685 307.784 636.138C309.691 647.65 309.944 659.654 312.335 672.101C312.889 679.792 313.369 686.237 302.939 683.038C303.458 690.785 309.737 713.518 311.538 722.94C312.134 727.855 312.795 732.756 313.519 737.651L314.716 744.352C315.679 751.8 319.586 768.519 315.727 773.676C300.074 782.045 29.3325 819.379 3.86987 816.423C-2.11169 812.491 0.615809 799.553 0.648974 793.384C0.651259 792.969 1.07763 785.327 1.11869 785.202L2.28224 779.062C3.25898 774.576 4.2961 770.097 5.39332 765.639C5.53304 764.822 5.68655 763.998 5.85376 763.188C9.97517 743.237 35.0724 728.174 51.2326 717.568C57.8926 712.695 65.5753 707.316 71.849 702.103C67.8332 692.661 79.1564 685.814 87.1146 688.68C89.0422 687.545 90.5502 685.835 92.1573 684.243C90.2691 683.336 85.7347 682.796 83.3972 682.478C64.9037 679.916 46.8138 676.393 28.5162 672.71C26.7333 672.281 26.8642 672.294 25.5431 671C24.3778 667.518 29.5479 646.923 30.6363 641.773C44.6418 575.447 85.4792 391.662 142.868 354.741Z" fill="#30112D"/>
<path d="M176.053 635.847C202.763 632.843 278.861 660.235 300.382 675.423C301.183 677.396 302.764 680.359 302.062 682.298L302.939 683.038C303.458 690.785 309.737 713.518 311.538 722.94C312.134 727.855 312.795 732.756 313.519 737.651L314.716 744.352C315.679 751.8 319.586 768.518 315.727 773.676C300.074 782.045 29.3325 819.379 3.86987 816.423C-2.11169 812.491 0.615809 799.552 0.648974 793.384C0.651259 792.969 1.07763 785.327 1.11869 785.202L2.28224 779.062C3.25898 774.576 4.2961 770.097 5.39332 765.639C5.53304 764.822 5.68655 763.998 5.85376 763.188C9.97517 743.237 35.0724 728.174 51.2326 717.568C57.8926 712.695 65.5753 707.316 71.849 702.103C67.8332 692.661 79.1564 685.814 87.1146 688.68C89.0422 687.545 90.5502 685.835 92.1573 684.243C93.9762 682.201 96.5075 684.347 97.285 679.224C97.0455 675.07 97.5752 674.357 99.5858 670.702C99.9168 670.398 100.254 670.093 100.598 669.802C104.979 666.092 107.876 665.787 113.143 666.286C116.463 664.015 121.072 660.699 123.116 657.217C120.292 647.034 124.609 644.202 133.173 640.146L135.356 639.467C138.046 638.277 141.724 636.975 144.538 635.881C146.096 637.107 148.766 638.976 149.791 640.513L145.455 643.302C152.111 646.535 156.139 648.723 162.452 652.939C165.613 649 169.188 645.892 173.229 642.894C175.31 641.343 178.524 640.215 179.418 638.574L176.053 635.847Z" fill="#0C0C0C"/>
<path d="M5.39332 765.639C5.53304 764.822 5.68655 763.998 5.85376 763.188C9.97517 743.237 35.0724 728.174 51.2326 717.568C60.21 722.504 64.0417 724.124 71.4128 731.268C78.4439 739.734 83.1251 747.245 88.057 757.082C139.473 751.316 198.702 743.867 249.68 734.923C267.75 732.514 285.05 728.229 302.354 722.705C304.072 722.158 308.669 723.466 311.538 722.94C312.134 727.855 312.795 732.756 313.519 737.651L314.716 744.352C315.679 751.801 319.586 768.519 315.727 773.676C300.074 782.045 29.3325 819.379 3.86987 816.423C-2.11169 812.491 0.615809 799.553 0.648974 793.385C0.651259 792.969 1.07763 785.327 1.11869 785.202L2.28224 779.062C3.25898 774.576 4.2961 770.097 5.39332 765.639Z" fill="#FBF0D6"/>
<path d="M5.39331 765.639C5.53303 764.822 5.68654 763.998 5.85375 763.188C9.97515 743.237 35.0724 728.174 51.2326 717.568C60.21 722.504 64.0417 724.124 71.4128 731.268C78.4439 739.734 83.1251 747.245 88.057 757.082C139.473 751.316 198.702 743.867 249.68 734.923C267.75 732.514 285.05 728.229 302.354 722.705C304.072 722.158 308.669 723.466 311.538 722.94C312.134 727.855 312.795 732.756 313.519 737.651C239.153 751.074 164.338 761.894 89.2139 770.083L34.6175 776.327C25.577 777.317 10.8834 779.159 2.28223 779.062C3.25897 774.576 4.29609 770.097 5.39331 765.639Z" fill="#FBF0D6"/>
<path d="M5.39355 765.639C5.53328 764.822 5.68678 763.998 5.85399 763.188C9.9754 743.237 35.0726 728.174 51.2328 717.568C60.2103 722.504 64.0419 724.124 71.413 731.268C78.4442 739.734 83.1254 747.245 88.0572 757.082C69.2652 759.762 50.1139 761.035 31.2202 762.932C21.6688 763.887 14.7699 762.814 5.39355 765.639Z" fill="#993CEC"/>
<path d="M2.2822 779.062C10.8834 779.159 25.577 777.317 34.6175 776.327L89.2139 770.083C164.338 761.894 239.153 751.074 313.519 737.651L314.716 744.352C273.447 750.721 219.288 761.631 178.846 765.798C158.555 767.882 9.96724 788.594 1.11865 785.202L2.2822 779.062Z" fill="#0C0C0C"/>
<path d="M121.494 714.155C155.737 715.353 160.881 692.128 190.924 687.483C214.035 683.911 242.355 693.581 267.188 694.384C262.793 700.248 259.868 704.761 256.253 711.206C234.331 709.095 200.426 699.576 181.255 709.905C153.836 724.685 140.319 738.883 106.947 725.675C113.265 721.86 116.891 719.846 121.494 714.155Z" fill="#FBF0D6"/>
<path d="M267.188 694.384C278.303 683.994 286.516 676.787 302.062 682.298L302.939 683.038C303.458 690.785 309.737 713.518 311.538 722.94C308.669 723.466 304.072 722.158 302.355 722.705C285.05 728.229 267.75 732.514 249.68 734.923C251.159 725.148 252.982 720.441 256.254 711.206C259.868 704.761 262.793 700.248 267.188 694.384Z" fill="#993CEC"/>
<path d="M71.8493 702.103C67.8335 692.661 79.1567 685.814 87.115 688.68C88.4852 690.072 103.85 698.088 107.941 700.933C113.009 709.13 104.663 715.491 97.4232 714.855L94.5761 713.152C86.0501 720.614 80.9853 725.142 71.4131 731.268C64.042 724.124 60.2103 722.504 51.2329 717.568C57.8929 712.695 65.5756 707.316 71.8493 702.103Z" fill="#30112D"/>
<path d="M71.8492 702.103C67.8334 692.661 79.1566 685.814 87.1148 688.68C88.4851 690.072 103.85 698.088 107.941 700.933C113.009 709.13 104.663 715.491 97.423 714.855L94.576 713.152C91.1646 710.383 75.8124 702.553 71.8492 702.103Z" fill="#FBF0D6"/>
<path d="M135.356 639.468C138.046 638.277 141.723 636.975 144.538 635.882C146.096 637.107 148.766 638.976 149.791 640.513L145.455 643.303C152.111 646.535 156.139 648.723 162.452 652.939C170.716 663.067 160.923 672.502 151.717 667.712C150.901 666.812 147.25 664.936 145.964 664.209C142.292 665.995 134.026 671.865 130.89 674.662C124.605 671.277 119.645 669.069 113.143 666.286C116.463 664.015 121.072 660.699 123.116 657.217C120.291 647.034 124.609 644.203 133.173 640.146L135.356 639.468Z" fill="#FBF0D6"/>
<path d="M123.116 657.217C130.42 656.234 140.006 660.367 145.964 664.209C142.292 665.995 134.026 671.865 130.89 674.662C124.605 671.277 119.645 669.069 113.143 666.286C116.463 664.015 121.072 660.699 123.116 657.217Z" fill="#30112D"/>
<path d="M135.356 639.468C138.047 638.277 141.724 636.975 144.538 635.882C146.096 637.107 148.766 638.976 149.791 640.513L145.455 643.303C142.204 642.866 137.588 641.932 135.356 639.468Z" fill="#FFFFFE"/>
<path d="M99.5859 670.702C99.9169 670.398 100.254 670.093 100.598 669.802C104.979 666.092 107.876 665.787 113.143 666.286C119.646 669.069 124.605 671.277 130.89 674.662C134.266 677.175 136.366 678.698 138.472 682.533C136.012 689.816 134.165 690.709 127.078 693.36L120.278 689.421C116.829 692.335 110.408 697.486 107.941 700.933C103.85 698.088 88.485 690.072 87.1147 688.68C89.0423 687.545 90.5504 685.835 92.1574 684.243C93.9763 682.201 96.5076 684.347 97.2852 679.224C97.0456 675.07 97.5753 674.357 99.5859 670.702Z" fill="#FBF0D6"/>
<path d="M97.2852 679.224C104.87 683.454 110.636 683.467 120.278 689.421C116.829 692.335 110.408 697.486 107.941 700.933C103.85 698.088 88.485 690.072 87.1147 688.68C89.0423 687.545 90.5504 685.835 92.1574 684.243C93.9763 682.201 96.5076 684.347 97.2852 679.224Z" fill="#30112D"/>
<path d="M145.964 664.209C147.25 664.936 150.901 666.812 151.718 667.712C148.501 670.612 140.014 678.753 138.472 682.533C136.366 678.698 134.266 677.175 130.89 674.662C134.026 671.865 142.292 665.995 145.964 664.209Z" fill="#0A010C"/>
<path d="M50.0845 660.657C61.9291 654.323 122.95 634.075 133.173 640.146C124.609 644.202 120.291 647.034 123.116 657.217C121.072 660.699 116.463 664.015 113.143 666.286C107.876 665.787 104.979 666.092 100.598 669.802C100.254 670.093 99.9167 670.398 99.5857 670.702C97.5751 674.357 97.0454 675.07 97.285 679.224C96.5074 684.347 93.9761 682.201 92.1572 684.243C90.2691 683.336 85.7346 682.796 83.3971 682.478C64.9036 679.916 46.8137 676.393 28.5161 672.71C30.9485 666.916 44.3565 662.755 50.0845 660.657Z" fill="#0C0C0C"/>
<path d="M28.5161 672.71C30.9485 666.916 44.3565 662.755 50.0845 660.658C58.3052 664.34 88.8026 667.926 99.5857 670.702C97.5751 674.357 97.0454 675.07 97.285 679.224C96.5074 684.347 93.9761 682.201 92.1572 684.243C90.2691 683.336 85.7346 682.796 83.3971 682.478C64.9036 679.916 46.8137 676.393 28.5161 672.71Z" fill="#1E0F1D"/>
<path d="M171.412 634.809L176.053 635.847L179.419 638.574C178.524 640.215 175.311 641.343 173.229 642.894C169.189 645.892 165.613 649 162.452 652.939C156.139 648.723 152.112 646.535 145.455 643.303L149.791 640.513C154.361 639.952 166.726 636.165 171.412 634.809Z" fill="#963DE6"/>
<path d="M144.538 635.882C155.197 633.618 160.719 632.822 171.412 634.809C166.726 636.165 154.36 639.952 149.791 640.513C148.766 638.976 146.096 637.107 144.538 635.882Z" fill="#FBF0D6"/>
<path d="M211.826 199.134C239.687 193.436 279.792 194.901 307.675 199.777C308.377 201.658 307.01 204.929 306.719 207.065C305.245 217.845 309.933 227.575 318.52 234.086C325.89 239.586 335.158 241.898 344.249 240.504C354.393 238.936 363.769 232.999 369.942 224.793C371.547 222.659 375.58 215.63 375.42 213.047C369.028 209.364 363.899 203.113 359.194 197.518C366.947 200.546 373.268 202.998 381.223 205.337L377.939 210.714C403.918 216.577 444.004 223.881 460.799 246.508C461.136 246.962 461.237 247.259 461.443 247.746C448.127 277.821 432.066 307.064 422.635 338.582C421.358 342.853 419.535 350.853 416.556 354.025L414.417 354.794C406.598 370.554 402.038 387.59 395.029 402.876C388.778 401.852 380.885 399.246 374.574 397.449C377.87 413.614 381.467 457.383 351.902 443.187C350.292 443.779 350.164 443.995 348.473 444.051C347.865 448.779 345.322 453.043 341.453 455.828C332.063 462.676 328.736 457 322.031 452.972C320.758 453.445 320.114 453.381 318.756 453.453L317.601 452.289C315.279 459.766 306.904 462.83 300.177 459.245C292.204 454.823 290.43 443.213 289.424 435.231C287.413 419.274 283.173 408.666 272.233 396.887C264.504 388.566 257.584 376.501 254.09 365.553C237.143 359.274 229.799 355.644 211.224 353.471C207.227 351.748 197.263 350.45 192.822 350.198C173.24 346.234 161.472 346.922 142.868 354.741C118.172 351.438 90.7707 357.664 68.2322 340.667C43.7814 322.226 44.6116 298.04 62.752 275.161C87.2451 244.269 123.923 224.177 160.01 209.866C175.321 203.874 195.982 201.312 211.826 199.134Z" fill="#993CEC"/>
<path d="M211.826 199.134C239.687 193.436 279.792 194.901 307.675 199.777C308.377 201.658 307.01 204.929 306.719 207.065C305.245 217.845 309.933 227.575 318.52 234.086C325.89 239.586 335.158 241.898 344.249 240.504C354.393 238.936 363.769 232.999 369.942 224.793C371.547 222.659 375.58 215.63 375.42 213.047C369.028 209.364 363.899 203.113 359.194 197.518C366.947 200.546 373.268 202.998 381.222 205.337L377.939 210.714C403.918 216.577 444.004 223.881 460.799 246.508C461.136 246.962 461.237 247.259 461.443 247.746C448.127 277.821 432.066 307.064 422.635 338.582C421.358 342.853 419.535 350.853 416.556 354.025L414.417 354.794C406.598 370.554 402.038 387.59 395.029 402.876C388.778 401.852 380.885 399.246 374.574 397.449C371.792 381.588 363.508 361.662 354.562 348.288C327.338 307.588 283.977 289.221 237.599 279.949C240.479 276.977 245.693 272.464 245.741 268.539C242.772 267.867 235.672 271.284 232.362 271.332C229.214 271.377 225.038 271.042 221.956 270.443C225.505 263.098 212.677 210.962 211.826 199.134Z" fill="#0C0C0C"/>
<path d="M221.956 270.443C225.038 271.042 229.214 271.377 232.361 271.332C235.672 271.284 242.772 267.867 245.741 268.539C245.693 272.464 240.479 276.977 237.599 279.949C221.269 276.136 203.966 275.742 187.403 273.848C186.206 273.711 185.904 272.835 185.417 271.95L186.288 270.613C192.702 266.71 213.908 269.326 221.956 270.443Z" fill="#0A010C"/>
<path d="M317.601 452.289C318.918 447.309 319.628 443.916 319.861 438.769C320.464 425.442 316.395 413.029 313.266 400.277C312.916 398.848 313.338 399.072 314.396 398.273C322.251 400.002 325.981 429.222 325.711 436.551C325.608 439.33 324.462 444.084 323.755 446.821C323.224 448.883 322.649 450.934 322.031 452.972C320.758 453.446 320.114 453.381 318.756 453.453L317.601 452.289Z" fill="#0C0C0C"/>
<path d="M348.473 444.051C348.629 433.469 349.818 425.521 347.949 414.645C347.058 409.461 339.813 392.319 343.763 389.646C345.256 390.682 346.221 392.124 346.96 393.783C354.404 410.508 357.245 425.811 351.902 443.187C350.292 443.78 350.164 443.995 348.473 444.051Z" fill="#0C0C0C"/>
<path d="M192.822 350.198C197.263 350.45 207.227 351.748 211.224 353.471C218.817 360.815 229.89 366.28 236.066 375.002C243.801 385.926 252.489 399.469 257.296 411.951C276.118 460.828 297.003 526.871 300.626 579.421L316.887 579.518L318.426 578.936L319.628 578.604C334.958 580.065 350.782 577.538 366.156 580.189C369.089 580.695 371.942 581.366 374.852 581.941C380.998 578.556 420.981 586.053 424.501 591.044C428.141 592.38 431.888 593.1 435.28 594.339C449.254 599.926 455.538 601.372 466.663 611.528L471.236 616.18C477.721 619.551 485.783 626.155 488.975 632.815C490.395 634.352 493.865 638.284 495.259 639.502C503.713 637.065 505.764 645.947 508.007 652.212C510.385 653.52 512.143 654.711 513.95 656.815C518.744 658.788 519.824 660.381 523.514 664.057L523.704 664.541C525.195 668.729 527.059 668.072 528.988 670.861C546.12 686.354 577.634 709.199 583.407 731.863C584.908 737.934 585.999 744.137 586.25 750.395C586.473 753.033 586.646 755.67 586.77 758.308C586.79 766.061 584.267 779.823 574.65 781.069C550.413 784.198 525.664 778.722 502.561 771.523C448.51 754.687 399.418 725.204 351.162 696.24C338.507 688.673 325.638 679.508 312.966 672.447L312.335 672.101C309.944 659.654 309.692 647.65 307.784 636.138C307.657 636.685 307.36 637.176 307.101 637.709C305.56 632.413 303.649 627.505 302.52 621.926C298.842 603.761 296.618 584.945 293.239 566.753C285.294 522.898 275.222 480.316 260.863 438.065C249.142 403.575 234.869 370.728 199.752 354.043C198.67 353.529 193.606 350.833 192.822 350.198Z" fill="#FBF0D6"/>
<path d="M319.628 578.604C334.958 580.065 350.782 577.538 366.156 580.189C369.089 580.695 371.941 581.366 374.852 581.941C380.997 578.556 420.98 586.053 424.501 591.044C428.141 592.38 431.888 593.1 435.279 594.339C449.254 599.926 455.538 601.372 466.663 611.528L471.235 616.18C477.72 619.551 485.783 626.155 488.974 632.815C490.394 634.352 493.865 638.284 495.258 639.502C503.712 637.065 505.764 645.947 508.006 652.212C510.385 653.52 512.142 654.711 513.949 656.815C518.743 658.788 519.823 660.381 523.514 664.057L523.703 664.541C522.382 667.836 521.162 669.339 517.936 670.965C516.806 673.319 516.532 673.188 517.155 676.095C520.012 678.864 527.948 690.847 530.725 694.848C524.331 700.4 521.708 703.052 516.79 710.251C515.391 712.293 510.891 719.79 510.025 720.531C500.473 716.682 491.373 713.775 481.691 709.58C448.812 695.07 416.988 678.276 386.452 659.321C378.633 654.573 362.067 644.916 355.39 639.308C332.093 621.766 326.484 609.292 307.386 589.057C311.485 585.444 313.371 583.658 316.887 579.518L318.425 578.936L319.628 578.604Z" fill="#0C0C0C"/>
<path d="M356.602 633.763C356.358 633.673 355.46 632.829 355.221 632.621C354.432 629.457 351.354 618.907 351.814 616.394C380.475 622.334 400.599 613.362 430.018 624.923C460.371 636.844 461.182 663.565 490.984 669.892C495.123 675.7 498.114 679.979 503.663 684.651C468.523 690.231 458.245 669.477 436.052 649.533C414.878 630.51 383.016 637.917 356.602 633.763Z" fill="#FBF0D6"/>
<path d="M319.628 578.604C334.958 580.065 350.782 577.538 366.156 580.189C369.089 580.695 371.941 581.366 374.852 581.941C386.337 585.603 396.061 587.977 406.344 594.505C381.597 595.786 365.437 601.843 339.761 597.586C342.411 600.957 350.671 615.633 351.814 616.394C351.354 618.907 354.432 629.457 355.22 632.621C355.46 632.829 356.357 633.673 356.602 633.763C355.015 635.549 355.517 636.283 355.39 639.308C332.093 621.766 326.484 609.292 307.386 589.057C311.485 585.444 313.371 583.658 316.887 579.518L318.425 578.936L319.628 578.604Z" fill="#993CEC"/>
<path d="M495.259 639.502C503.713 637.065 505.764 645.947 508.007 652.212C505.602 653.195 502.38 653.368 499.728 653.673C497.628 655.043 494.651 657.362 492.553 658.892C481.516 653.915 479.978 649.616 490.572 642.728C492.398 641.738 493.597 640.755 495.259 639.502Z" fill="#FBF0D6"/>
<path d="M466.663 611.528L471.235 616.18C477.72 619.551 485.783 626.155 488.974 632.815C487.369 633.57 485.501 634.511 483.896 635.182C477.934 635.743 476.664 631.645 472.273 627.498C471.044 627.298 469.817 627.083 468.592 626.855C465.366 626.238 463.768 626.142 461.932 623.463C461.753 620.825 461.573 621.856 463.393 619.309L460.589 616.09C463.026 615.204 464.706 613.321 466.663 611.528Z" fill="#FBF0D6"/>
<path d="M466.663 611.528L471.235 616.18C468.64 617.274 466.026 618.319 463.393 619.309L460.589 616.09C463.026 615.204 464.706 613.321 466.663 611.528Z" fill="#993CEC"/>
<path d="M513.95 656.815C518.744 658.788 519.824 660.381 523.514 664.057L523.704 664.541C522.382 667.836 521.162 669.338 517.936 670.965C513.492 671.948 501.166 682.048 501.144 668.072C501.139 665.005 503.666 663.343 505.822 661.357C508.716 659.605 510.896 658.297 513.95 656.815Z" fill="#FBF0D6"/>
<path d="M435.279 594.339C449.254 599.926 455.538 601.372 466.663 611.528C464.706 613.321 463.026 615.204 460.589 616.09C453.849 611.016 440.313 601.615 432.831 598.105L435.279 594.339Z" fill="#FBF0D6"/>
<path d="M508.007 652.212C510.385 653.52 512.142 654.711 513.95 656.815C510.895 658.297 508.716 659.605 505.822 661.357C503.927 658.823 501.717 656.165 499.728 653.673C502.381 653.368 505.602 653.195 508.007 652.212Z" fill="#993CEC"/>
<path d="M424.501 591.044C428.141 592.38 431.888 593.1 435.279 594.339L432.831 598.105C429.307 597.073 424.756 596.755 422.146 594.734L422.129 593.439L424.501 591.044Z" fill="#993CEC"/>
<path d="M488.975 632.815C490.395 634.352 493.865 638.284 495.259 639.502C493.597 640.755 492.398 641.738 490.572 642.728C488.167 639.696 486.608 637.945 483.896 635.182C485.501 634.511 487.369 633.57 488.975 632.815Z" fill="#993CEC"/>
<path d="M406.272 593.681C410.442 593.038 417.889 592.74 421.752 594.429C418.297 594.969 409.24 595.426 406.272 593.681Z" fill="#69179C"/>
<path d="M307.784 636.138L307.964 633.493C311.256 633.279 327.005 644.867 330.771 647.29C344.929 656.296 359.177 665.164 373.513 673.887C437.28 712.515 511.794 752.015 586.769 758.308C586.79 766.061 584.267 779.823 574.65 781.069C550.413 784.198 525.664 778.722 502.561 771.523C448.51 754.687 399.418 725.204 351.162 696.24C338.507 688.673 325.638 679.508 312.966 672.447L312.335 672.101C309.944 659.654 309.692 647.65 307.784 636.138Z" fill="#FBF0D6"/>
<path d="M192.822 350.198C197.263 350.45 207.227 351.748 211.224 353.471C218.817 360.815 229.89 366.28 236.066 375.002C243.801 385.926 252.489 399.469 257.296 411.951C276.118 460.828 297.003 526.871 300.626 579.421C302.731 594.491 304.896 608.966 306.569 624.106C380.809 671.291 460.707 724.11 547.217 745.307C559.417 748.298 573.72 751.067 586.25 750.395C586.473 753.033 586.646 755.67 586.77 758.308C511.794 752.015 437.28 712.515 373.513 673.887C359.177 665.164 344.929 656.296 330.771 647.29C327.005 644.867 311.256 633.279 307.964 633.493L307.784 636.138C307.657 636.685 307.36 637.176 307.101 637.709C305.56 632.413 303.649 627.505 302.52 621.926C298.842 603.761 296.618 584.945 293.239 566.753C285.294 522.898 275.222 480.316 260.863 438.065C249.142 403.575 234.869 370.728 199.752 354.043C198.67 353.529 193.606 350.833 192.822 350.198Z" fill="#0C0C0C"/>
<path d="M523.704 664.541C525.194 668.729 527.059 668.072 528.988 670.861C546.12 686.354 577.633 709.199 583.406 731.863C576.352 730.306 567.051 732.438 559.218 731.898C541.357 730.659 526.825 725.903 510.025 720.531C510.891 719.79 515.392 712.293 516.79 710.251C521.708 703.052 524.332 700.4 530.725 694.848C527.949 690.847 520.013 678.864 517.155 676.095C516.532 673.188 516.806 673.319 517.936 670.965C521.162 669.339 522.382 667.836 523.704 664.541Z" fill="#993CEC"/>
<path d="M523.703 664.541C525.194 668.729 527.059 668.072 528.988 670.861C525.246 672.758 521.163 675.036 517.155 676.095C516.532 673.188 516.806 673.319 517.936 670.965C521.162 669.339 522.382 667.836 523.703 664.541Z" fill="#FAEBE9"/>
<path d="M318.425 578.936L316.565 578.424C317.179 574.042 351.845 546.968 358.227 542.24C409.8 504.002 466.361 463.469 531.912 455.975C532.447 455.913 533.114 456.364 533.564 456.624L533.917 457.644C531.61 459.297 528.057 459.934 525.238 460.437C510.504 463.066 494.639 469.048 480.977 475.149C435.541 495.439 392.922 523.874 352.886 553.281C342.559 560.868 329.232 570.311 319.628 578.604L318.425 578.936Z" fill="#0C0C0C"/>
<path d="M504.186 316.389C505.912 312.237 506.891 304.855 507.731 300.227C509.568 290.143 511.349 280.048 513.074 269.943C515.538 254.876 516.239 246.342 524.548 232.714C532.712 218.653 536.18 203.033 544.425 188.926C550.527 178.483 563.167 172.346 570.256 184.963C574.675 192.828 567.174 212.633 564.313 220.809C585.348 207.962 618.7 184.374 644.935 186.521C651.762 187.08 649.526 196.275 654.282 197.614C660.888 199.484 662.051 196.9 666.039 203.082C669.252 208.048 664.537 213.066 665.665 213.98C677.789 223.768 676.702 230.779 661.982 241.675C664.218 245.102 666.171 247.887 665.187 252.28C662.563 263.969 644.146 273.912 634.506 279.742C620.871 287.985 602.378 298.805 587.161 303.362C586.575 338.184 586.41 373.614 578.023 407.644C576.395 414.252 571.214 422.494 570.109 426.417C565.725 426.669 551.826 425.834 546.568 425.768C519.196 425.426 482.295 425.566 455.978 418.995C433.938 414.885 416.312 409.811 395.029 402.876C402.038 387.59 406.598 370.554 414.417 354.794L416.556 354.025C419.535 350.853 421.358 342.853 422.635 338.582C432.066 307.064 448.127 277.821 461.443 247.746C464.621 253.091 468.488 258.658 472.071 263.769C483.368 279.877 492.214 297.207 502.262 313.985L504.186 316.389Z" fill="#993CEC"/>
<path d="M414.417 354.794C419.009 362.38 422.762 370.597 427.224 378.139C435.533 392.183 445.359 406.606 455.978 418.995C433.938 414.885 416.312 409.811 395.029 402.876C402.038 387.59 406.598 370.554 414.417 354.794Z" fill="#13274C"/>
<path d="M502.262 313.985L504.186 316.389C506.435 319.617 500.653 353.198 497.074 355.429L496.365 354.449C494.42 343.424 497.544 324.131 502.262 313.985Z" fill="#0C0C0C"/>
<path d="M653.659 212.046C657.35 211.566 659.877 211.477 663.373 212.848L663.789 213.974C662.023 215.488 650.232 218.19 646.424 219.793C634.713 224.727 625.252 230.412 614.898 237.638C612.883 239.062 609.982 241.6 607.652 240.27C608.326 231.123 644.686 214.706 653.659 212.046Z" fill="#0A010C"/>
<path d="M641.709 198.12C643.045 198.366 642.401 198.134 643.509 199.176C642.983 200.473 642.214 201.138 640.878 201.711C626.203 207.977 613.155 216.953 599.959 225.978L598.331 224.65C598.037 215.787 633.827 199.971 641.709 198.12Z" fill="#08010C"/>
<path d="M650.294 237.66C654.629 237.421 657.114 237.562 661.082 239.794L661.331 240.981C659.524 242.385 650.98 241.566 645.891 243.675C637.042 247.343 631.62 251.314 623.74 256.548C621.623 258.16 619.654 259.944 617.093 259.954L616.436 258.995C619.795 249.645 641.155 239.604 650.294 237.66Z" fill="#0A010C"/>
<path d="M282.01 147.402C267.908 133.071 246.723 100.844 237.822 82.6851C236.886 80.7731 235.523 78.121 236.389 76.0173C240.667 65.6237 304.306 35.7443 316.435 30.5081C332.707 23.4823 404.032 -4.67669 417.534 0.671018C421.386 5.48361 429.133 47.465 428.708 54.1585C430.263 60.6366 430.1 66.7894 437.374 67.8188C444.866 69.3314 445.579 78.6921 439.192 82.4809C441.6 87.2589 442.848 89.9448 444.611 94.9734C450.225 101.995 451.214 107.091 450.975 116.143C464.073 148.947 446.903 188.991 413.901 201.992C402.514 206.478 393.184 206.701 381.223 205.337C373.268 202.998 366.947 200.546 359.194 197.518C363.899 203.113 369.028 209.364 375.42 213.047C375.58 215.63 371.547 222.659 369.942 224.793C363.769 232.999 354.393 238.936 344.249 240.504C335.158 241.898 325.89 239.586 318.52 234.086C309.933 227.575 305.245 217.845 306.719 207.065C307.01 204.929 308.377 201.658 307.675 199.777C309.329 198.625 318.585 181.393 320.03 178.787C297.921 182.25 280.972 170.931 282.01 147.402Z" fill="#993CEC"/>
<path d="M282.01 147.402C267.908 133.071 246.723 100.844 237.822 82.6851C236.886 80.7731 235.523 78.121 236.389 76.0173C240.667 65.6237 304.306 35.7443 316.435 30.5081C332.707 23.4823 404.032 -4.67669 417.534 0.671018C421.386 5.48361 429.133 47.465 428.708 54.1585C396.24 59.2043 355.348 74.7746 327.365 91.9773C330.337 106.086 333.693 121.142 325.828 134.318C306.339 120.363 290.243 124.7 282.01 147.402Z" fill="#0C0C0C"/>
<path d="M432.324 94.194C437.741 91.9773 439.412 92.5637 444.611 94.9735C450.225 101.995 451.214 107.091 450.974 116.143C448.715 127.883 447.688 122.651 442.223 130.82C442.048 131.084 445.307 138.762 444.074 143.781C441.102 148.048 430.211 154.298 425.225 151.051C427.058 145.667 441.01 146.045 440.347 139.483C439.62 132.295 430.943 121.43 425.474 116.609C422.548 114.031 419.635 112.177 417.27 109.398L417.432 108.109C419.753 107.205 418.806 107.388 421.381 107.777C422.777 102.154 426.589 96.0852 432.324 94.194Z" fill="#0C0C0C"/>
<path d="M421.38 107.777C422.777 102.154 426.589 96.0852 432.324 94.1939C428.85 102.482 429.328 105.929 430.971 114.748C427.752 112.455 424.555 110.131 421.38 107.777Z" fill="#FFFFFE"/>
<path d="M437.374 67.8188C444.866 69.3314 445.579 78.6921 439.192 82.4809C433.335 82.5446 417.528 85.9768 414.96 82.4186C403.478 66.5118 432.96 67.8285 437.374 67.8188Z" fill="#0C0C0C"/>
<path d="M391.245 104.176C413.629 101.15 416.975 141.198 397.05 141.626C386.719 144.584 376.001 141.165 372.559 130.074C371.103 125.381 371.593 120.3 373.919 115.972C377.795 108.691 383.789 106.234 391.245 104.176Z" fill="#0C0C0C"/>
<path d="M397.05 141.625C386.719 144.584 376.001 141.165 372.559 130.074C371.103 125.381 371.593 120.3 373.919 115.972C377.795 108.691 383.789 106.234 391.245 104.176C382.947 116.283 383.218 133.853 397.05 141.625Z" fill="#FFFFFE"/>
<path d="M389.162 76.868C395.59 76.6797 400.22 82.1278 398.058 87.2097C395.286 93.7245 378.126 99.9092 372.105 102.491C368.333 102.741 364.894 101.614 363.412 97.8601C359.449 87.8203 382.236 79.6918 389.162 76.868Z" fill="#0C0C0C"/>
<path d="M386.174 157.531C388.655 159.032 391.395 169.991 396.337 172.438C400.203 174.353 407.838 174.14 409.05 177.618L407.628 179.407C407.236 179.475 406.841 179.533 406.446 179.583C395.736 180.884 376.873 168.003 386.174 157.531Z" fill="#040006"/>
<path d="M303.775 143.473C307.844 143.48 311.818 144.699 315.191 146.973C318.29 149.02 319.999 151.919 320.743 155.489C320.118 157.678 320.752 156.91 318.943 157.998C316.862 157.523 317.84 157.988 316.174 156.11C313.365 152.823 309.31 147.863 304.508 149.087C302.115 149.698 297.628 150.019 296.131 147.751C297.578 145.464 301.3 144.177 303.775 143.473Z" fill="#0C0C0C"/>
<path d="M529.12 46.2459C531.62 45.9212 533.711 46.5886 535.75 47.9489C536.221 49.0883 536.626 49.6186 536.491 50.8834C535.742 57.889 504.699 79.7153 497.792 84.7446C497.26 84.8712 495.617 85.0042 494.98 85.0734C478.303 79.1996 523.843 49.6345 529.12 46.2459Z" fill="#0C0C0C"/>
<path d="M542.797 104.902C545.376 104.536 547.366 104.83 549.708 105.857C551.887 108.326 551.304 107.141 551.962 110.326C549.509 118.606 520.917 118.264 512.36 119.103C506.699 119.331 504.969 119.891 501.734 115.111C500.225 104.793 535.409 105.456 542.797 104.902Z" fill="#0C0C0C"/>
<path d="M731.441 100.134C738.081 101.601 757.447 114.924 763.069 120C766.628 123.209 765.776 126.722 761.899 129.547C755.377 128.084 735.436 114.136 729.184 109.626C727.335 108.293 727.398 106.896 727.349 104.961C728.325 102.529 729.468 101.847 731.441 100.134Z" fill="#0C0C0C"/>
<path d="M747.429 148.621C749.256 148.381 755.308 147.569 756.471 148.481C770.526 159.522 735.236 160.508 729.537 161.069C724.829 161.602 718.84 161.423 719.699 154.911C724.393 149.424 739.708 149.38 747.429 148.621Z" fill="#0C0C0C"/>
</svg>
